<?xml version="1.0" encoding="utf-8"?>
<svg viewBox="95.166 55.631 68 68" xmlns="http://www.w3.org/2000/svg" xmlns:xlink="http://www.w3.org/1999/xlink" xmlns:bx="https://boxy-svg.com">
  <defs>
    <linearGradient id="gradient-1" bx:pinned="true">
      <stop offset="0" style="stop-color: rgb(255, 193, 7);"/>
      <stop offset="0.613" style="stop-color: rgba(255, 193, 7, 0.13);"/>
    </linearGradient>
    <linearGradient id="gradient-2" bx:pinned="true">
      <stop offset="0.24" style="stop-color: rgb(228, 233, 93);"/>
      <stop offset="1" style="stop-color: rgba(232, 157, 31, 0.843);"/>
    </linearGradient>
    <radialGradient id="gradient-2-0" gradientUnits="userSpaceOnUse" cx="128.978" cy="89.67" r="32" xlink:href="#gradient-2"/>    
  </defs>
  <ellipse style="paint-order: fill; fill: url('#gradient-2-0'); stroke: rgba(153, 116, 4, 0.57);" cx="128.978" cy="89.67" rx="32" ry="32"/>
  <path d="M 77.248 98.649 C 82.124 98.649 85.181 94.431 87.851 87.736 C 89.67 83.13 91.412 76.9 91.412 73.378 C 91.412 70.979 90.87 69.276 88.625 69.276 C 87.503 69.276 86.961 69.624 86.961 69.624 C 87.503 71.211 87.735 73.107 87.735 75.158 C 87.735 80.924 85.878 87.774 83.594 91.722 C 82.201 94.082 80.537 95.282 78.718 95.282 C 76.667 95.282 74.732 94.276 74.732 89.709 C 74.732 88.471 74.926 86.884 75.235 85.065 L 77.17 73.842 C 77.673 70.862 77.132 69.624 74.268 69.624 L 71.597 69.624 C 65.367 69.624 61.845 72.41 61.845 76.242 C 61.845 78.564 63.393 80.112 65.909 80.112 C 67.882 80.112 68.85 78.873 68.85 77.945 C 68.85 77.712 68.811 77.596 68.811 77.596 C 68.811 77.596 68.579 77.712 68.153 77.712 C 67.186 77.712 66.605 77.016 66.605 75.932 C 66.605 73.726 68.347 71.753 71.868 71.753 L 72.217 71.753 C 72.217 71.753 72.217 72.527 72.023 73.649 L 70.204 85.027 C 69.972 86.42 69.856 88.084 69.856 89.477 C 69.856 94.624 71.868 98.649 77.248 98.649 Z" transform="matrix(0.906308, -0.422618, 0.422618, 0.906308, 15.896594, 55.738038)" style="stroke-linecap: round; stroke-opacity: 0.43; stroke-width: 0.927062px; fill: rgb(36, 137, 168);"/>
  <path d="M 69.392 89.477 C 69.392 88.068 69.512 86.367 69.746 84.953 L 71.566 73.57 C 71.666 73.006 71.712 72.537 71.734 72.216 C 70.127 72.226 69.014 72.668 68.222 73.364 C 67.423 74.065 67.069 74.918 67.069 75.932 C 67.069 76.402 67.16 76.684 67.368 76.926 C 67.57 77.161 67.765 77.248 68.153 77.248 C 68.475 77.248 68.604 77.181 68.604 77.181 L 69.108 76.918 L 69.25 77.448 C 69.25 77.448 69.314 77.638 69.314 77.945 C 69.314 78.504 68.986 79.236 68.424 79.726 C 67.881 80.199 66.985 80.576 65.909 80.576 C 64.569 80.576 63.379 80.122 62.612 79.381 C 61.842 78.638 61.381 77.489 61.381 76.242 C 61.381 74.217 62.373 72.353 64.117 71.118 C 65.839 69.898 68.418 69.169 71.597 69.16 L 74.268 69.16 C 75.779 69.174 76.868 69.566 77.374 70.368 C 77.869 71.153 77.882 72.39 77.627 73.921 L 75.692 85.143 C 75.385 86.951 75.196 88.499 75.196 89.709 C 75.196 91.917 75.62 93.143 76.3 93.898 C 76.954 94.624 77.749 94.818 78.718 94.818 C 80.401 94.818 81.864 93.78 83.193 91.49 C 85.454 87.597 87.271 80.863 87.271 75.158 C 87.271 73.135 87.054 71.314 86.522 69.774 L 86.398 69.414 L 86.711 69.234 C 86.711 69.234 87.378 68.812 88.625 68.812 C 89.868 68.812 90.791 69.374 91.262 70.197 C 91.722 70.999 91.876 72.148 91.876 73.378 C 91.876 76.962 90.108 83.279 88.282 87.908 C 86.937 91.277 85.467 94.08 83.721 96.014 C 81.96 97.964 79.795 99.113 77.248 99.113 C 74.447 99.113 72.391 97.994 71.157 96.262 C 69.929 94.538 69.392 92.1 69.392 89.477 Z M 71.912 95.724 C 73.029 97.291 74.669 98.185 77.248 98.185 C 79.577 98.185 81.378 97.225 83.033 95.393 C 84.702 93.544 86.095 90.89 87.42 87.565 C 89.231 82.982 90.948 76.838 90.948 73.378 C 90.948 72.209 90.831 71.307 90.458 70.658 C 90.098 70.029 89.627 69.74 88.625 69.74 C 87.628 69.74 87.525 69.869 87.525 69.869 C 87.99 71.421 88.199 73.079 88.199 75.158 C 88.199 80.985 86.302 87.951 83.995 91.954 C 82.538 94.384 80.673 95.746 78.718 95.746 C 77.636 95.746 76.438 95.437 75.611 94.518 C 74.811 93.629 74.268 92.069 74.268 89.709 C 74.268 88.443 74.467 86.817 74.778 84.987 L 76.713 73.763 C 76.961 72.314 76.955 71.442 76.59 70.863 C 76.235 70.301 75.621 70.074 74.268 70.088 L 71.597 70.088 C 68.546 70.079 66.249 70.743 64.653 71.874 C 63.078 72.99 62.309 74.435 62.309 76.242 C 62.309 77.317 62.622 78.103 63.255 78.714 C 63.891 79.328 64.734 79.648 65.909 79.648 C 66.806 79.648 67.381 79.405 67.815 79.027 C 68.146 78.738 68.313 78.456 68.367 78.166 C 68.3 78.172 68.228 78.176 68.153 78.176 C 67.574 78.176 66.995 77.915 66.665 77.531 C 66.341 77.154 66.141 76.546 66.141 75.932 C 66.141 74.74 66.658 73.503 67.61 72.667 C 68.548 71.844 70.026 71.304 71.868 71.289 L 72.682 71.289 L 72.681 71.753 C 72.681 71.753 72.677 72.565 72.48 73.724 L 70.662 85.1 C 70.432 86.471 70.32 88.1 70.32 89.477 C 70.32 92.001 70.789 94.149 71.912 95.724 Z" style="fill: rgb(36, 137, 168);" transform="matrix(0.9063079953193665, -0.42261803150177, 0.42261803150177, 0.9063079953193665, 15.896594284424097, 55.738037939936476)"/>
  <path d="M 70.364 73.404 C 64.133 73.404 60.611 76.19 60.611 80.022 C 60.611 82.344 62.159 83.892 64.675 83.892 C 66.649 83.892 67.616 82.653 67.616 81.724 C 67.616 81.492 67.577 81.376 67.577 81.376 C 67.577 81.376 67.345 81.492 66.919 81.492 C 65.952 81.492 65.371 80.796 65.371 79.712 C 65.371 77.506 67.113 75.532 70.635 75.532 L 71.022 75.532 C 71.022 76.036 70.944 76.693 70.828 77.429 L 66.726 100.765 C 66.068 104.441 64.907 105.718 63.282 105.718 C 62.043 105.718 61.308 104.906 61.308 103.474 C 61.308 102.003 61.966 100.726 61.966 100.726 C 61.966 100.726 61.54 100.494 60.534 100.494 C 58.599 100.494 57.438 101.539 57.438 103.396 C 57.438 105.951 59.45 107.847 63.204 107.847 C 68.003 107.847 71.099 105.448 72.067 99.875 L 75.975 77.622 C 76.517 74.642 75.937 73.404 73.073 73.404 Z" transform="matrix(0.945519, -0.325568, 0.325568, 0.945519, 47.496396, 25.766758)" style="stroke-linecap: round; stroke-opacity: 0.43; stroke-width: 0.927062px; fill: rgb(36, 137, 168);"/>
  <path d="M 73.073 72.94 C 74.583 72.954 75.681 73.345 76.192 74.146 C 76.693 74.932 76.706 76.17 76.431 77.702 L 72.524 99.954 C 72.018 102.806 70.936 104.948 69.376 106.301 C 67.81 107.659 65.671 108.311 63.204 108.311 C 61.255 108.311 59.657 107.785 58.62 106.939 C 57.568 106.08 56.974 104.769 56.974 103.396 C 56.974 102.381 57.34 101.47 57.945 100.909 C 58.547 100.351 59.492 100.03 60.534 100.03 C 61.651 100.03 62.188 100.319 62.188 100.319 L 62.594 100.538 L 62.378 100.938 C 62.378 100.938 61.772 102.109 61.772 103.474 C 61.772 104.118 61.9 104.512 62.177 104.826 C 62.448 105.131 62.751 105.254 63.282 105.254 C 63.998 105.254 64.485 105.033 64.994 104.344 C 65.531 103.618 65.951 102.484 66.269 100.685 L 70.371 77.353 C 70.451 76.844 70.512 76.387 70.54 75.995 C 68.912 75.998 67.787 76.441 66.988 77.143 C 66.189 77.845 65.835 78.698 65.835 79.712 C 65.835 80.182 65.926 80.464 66.134 80.706 C 66.336 80.941 66.531 81.028 66.919 81.028 C 67.241 81.028 67.37 80.961 67.37 80.961 L 67.874 80.698 L 68.016 81.228 C 68.016 81.228 68.08 81.418 68.08 81.724 C 68.08 82.283 67.752 83.016 67.19 83.506 C 66.647 83.979 65.752 84.356 64.675 84.356 C 63.335 84.356 62.145 83.902 61.378 83.161 C 60.608 82.418 60.147 81.269 60.147 80.022 C 60.147 77.997 61.139 76.133 62.883 74.898 C 64.605 73.678 67.185 72.949 70.364 72.94 Z M 70.364 73.868 C 67.312 73.859 65.015 74.523 63.419 75.654 C 61.844 76.77 61.075 78.215 61.075 80.022 C 61.075 81.097 61.388 81.883 62.021 82.494 C 62.657 83.108 63.5 83.428 64.675 83.428 C 65.572 83.428 66.147 83.185 66.581 82.807 C 66.912 82.518 67.079 82.237 67.132 81.947 C 67.065 81.952 66.994 81.956 66.919 81.956 C 66.34 81.956 65.761 81.695 65.431 81.311 C 65.107 80.934 64.907 80.326 64.907 79.712 C 64.907 78.52 65.424 77.283 66.376 76.446 C 67.314 75.623 68.793 75.083 70.635 75.068 L 71.487 75.068 L 71.486 75.532 C 71.484 76.063 71.403 76.756 71.286 77.501 L 67.183 100.845 C 66.843 102.722 66.354 104.064 65.739 104.896 C 65.097 105.764 64.191 106.182 63.282 106.182 C 62.574 106.182 61.89 105.899 61.484 105.44 C 61.084 104.99 60.844 104.262 60.844 103.474 C 60.844 101.897 61.139 101.56 61.342 101.019 C 61.153 100.985 61.429 100.958 60.534 100.958 C 59.641 100.958 59.038 101.16 58.576 101.589 C 58.116 102.014 57.902 102.554 57.902 103.396 C 57.902 104.578 58.314 105.492 59.206 106.22 C 60.114 106.961 61.399 107.383 63.204 107.383 C 65.536 107.383 67.345 106.835 68.768 105.601 C 70.198 104.361 71.148 102.517 71.61 99.796 L 75.518 77.542 C 75.786 76.095 75.78 75.223 75.411 74.645 C 75.052 74.082 74.427 73.854 73.073 73.868 Z" style="fill: rgb(36, 137, 168);" transform="matrix(0.9455190896987915, -0.32556799054145813, 0.32556799054145813, 0.9455190896987915, 47.496395818835424, 25.766758349042505)"/>
</svg>