<svg xmlns="http://www.w3.org/2000/svg" viewBox="-0.000021775 -0.0000368729 69.2 120">
	<path d="M 23.9 114.967 L 24.7 116.067 Q 23.944 116.479 23.022 117.033 A 72.873 72.873 270 0 0 22.15 117.567 Q 20.7 118.467 19.3 119.167 A 17.531 17.531 270 0 1 18.644 119.479 Q 18.008 119.765 17.56 119.889 A 2.906 2.906 270 0 1 17.2 119.967 Q 16.2 120.067 14.6 119.867 A 4.123 4.123 270 0 1 12.344 118.822 A 5.613 5.613 270 0 1 11.8 118.267 A 6.377 6.377 270 0 1 10.752 116.544 Q 10.425 115.765 10.227 114.821 A 12.533 12.533 270 0 1 10.1 114.117 Q 9.7 111.467 9.7 108.667 A 66.383 66.383 270 0 1 9.842 104.253 A 59.438 59.438 270 0 1 9.9 103.467 A 85.696 85.696 270 0 0 9.988 102.273 Q 10.084 100.807 10.098 99.714 A 27.942 27.942 270 0 0 10.1 99.367 L 10.1 97.067 Q 10.1 94.881 10.055 91.567 A 758.186 758.186 270 0 0 10.05 91.217 Q 10 87.667 10 83.667 L 10 76.367 L 12.6 78.467 L 12.6 85.467 A 13.212 13.212 270 0 1 14.897 84.524 Q 16.047 84.165 17.423 83.913 A 33.012 33.012 270 0 1 20.4 83.517 Q 25.4 83.067 30 83.067 L 33.6 83.067 A 49.307 49.307 270 0 1 35.011 83.086 Q 35.654 83.104 36.227 83.141 A 27.76 27.76 270 0 1 36.6 83.167 Q 39.831 83.304 43.961 83.867 A 134.56 134.56 270 0 1 47.9 84.467 Q 54.5 85.567 60.4 87.267 Q 56.413 84.448 51.385 80.755 A 1009.133 1009.133 270 0 1 46.6 77.217 Q 38.6 71.267 29.95 63.517 Q 21.3 55.767 13.5 46.367 Q 12.403 45.064 11.118 43.198 A 73.674 73.674 270 0 1 9.9 41.367 Q 7.9 38.267 6.45 34.767 A 20.493 20.493 270 0 1 5.412 31.586 A 15.033 15.033 270 0 1 5 28.167 Q 5 25.267 6 24.117 A 3.244 3.244 270 0 1 8.354 22.974 A 4.265 4.265 270 0 1 8.6 22.967 A 7.452 7.452 270 0 1 10.437 23.211 Q 11.244 23.416 12.112 23.794 A 14.409 14.409 270 0 1 12.8 24.117 Q 14.858 25.145 16.275 25.734 A 26.779 26.779 270 0 0 16.6 25.867 Q 16.9 25.967 17 26.767 A 2.985 2.985 270 0 1 17.011 26.872 Q 17.073 27.56 16.7 27.467 Q 16.15 27.329 15.435 27.168 A 94.05 94.05 270 0 0 14.75 27.017 Q 13.6 26.767 12.4 26.767 Q 10.8 26.767 9.5 27.367 A 2.458 2.458 270 0 0 8.147 28.953 A 3.987 3.987 270 0 0 8 29.667 A 1.89 1.89 270 0 0 7.9 30.257 A 1.801 1.801 270 0 0 7.9 30.267 L 7.9 30.867 A 10.039 10.039 270 0 0 8.358 33.782 Q 8.723 34.987 9.38 36.26 A 19.24 19.24 270 0 0 9.85 37.117 A 46.902 46.902 270 0 0 11.531 39.777 Q 12.47 41.166 13.623 42.7 A 99.871 99.871 270 0 0 15.3 44.867 Q 22 53.267 30.05 60.817 Q 38.1 68.367 46.9 75.267 Q 51.4 78.867 56 82.267 Q 60.6 85.667 65.6 88.567 A 4.263 4.263 270 0 0 66.008 88.743 Q 66.225 88.825 66.473 88.895 A 7.235 7.235 270 0 0 66.55 88.917 A 4.702 4.702 270 0 1 66.869 89.015 Q 67.029 89.071 67.16 89.133 A 1.871 1.871 270 0 1 67.4 89.267 Q 67.561 89.428 67.886 90.11 A 19.053 19.053 270 0 1 68.05 90.467 A 30.889 30.889 270 0 1 68.715 92.059 A 27.394 27.394 270 0 1 68.85 92.417 A 16 16 270 0 1 68.969 92.75 Q 69.2 93.423 69.2 93.667 Q 69.2 94.245 69.069 94.667 A 1.982 1.982 270 0 1 68.95 94.967 Q 68.718 95.43 68.014 95.378 A 2.266 2.266 270 0 1 67.9 95.367 Q 67.6 95.367 67 95.067 Q 66.4 94.767 66.1 94.667 Q 64.7 94.167 63.25 93.767 Q 61.8 93.367 60.5 92.967 Q 55 91.567 49.55 90.367 Q 44.1 89.167 38.6 88.467 Q 36.15 88.16 32.381 87.737 A 1092.364 1092.364 270 0 0 29.95 87.467 A 98.088 98.088 270 0 0 21.002 86.881 A 88.114 88.114 270 0 0 19.4 86.867 A 70.991 70.991 270 0 0 16.998 86.906 A 58.188 58.188 270 0 0 15.65 86.967 Q 13.9 87.067 12.5 87.467 Q 12.5 90.767 12.45 94.067 Q 12.4 97.367 12.4 100.567 Q 12.4 101.715 12.517 103.538 A 106.79 106.79 270 0 0 12.6 104.717 A 31.186 31.186 270 0 0 13.373 109.602 A 34.643 34.643 270 0 0 13.5 110.117 A 12.313 12.313 270 0 0 14.389 112.558 A 9.526 9.526 270 0 0 15.8 114.667 A 4.745 4.745 270 0 0 19.274 116.28 Q 19.673 116.298 20.1 116.267 Q 20.9 116.167 22.25 115.667 Q 23.6 115.167 23.9 114.967 Z
M 52.8 0 L 63.6 0 A 0.601 0.601 0 0 1 63.667 0.003 Q 63.734 0.011 63.767 0.035 A 0.076 0.076 0 0 1 63.8 0.1 A 0.421 0.421 0 0 1 63.754 0.277 Q 63.641 0.518 63.246 0.867 A 5.785 5.785 0 0 1 63.15 0.95 A 8.816 8.816 0 0 1 62.922 1.137 Q 62.463 1.5 62.3 1.5 Q 59.5 1.6 57.35 3.6 Q 55.2 5.6 53.65 8.15 Q 52.318 10.341 51.392 12.2 A 37.821 37.821 0 0 0 51.1 12.8 Q 50.5 14 49.25 16.65 A 173.728 173.728 0 0 0 47.971 19.428 Q 47.308 20.901 46.596 22.544 A 280.463 280.463 0 0 0 46.55 22.65 Q 45.1 26 43.65 29.3 A 534.689 534.689 0 0 1 42.612 31.648 Q 42.2 32.574 41.822 33.412 A 289.571 289.571 0 0 1 41.1 35 Q 38.5 41 36.25 46.15 A 93.625 93.625 0 0 1 36.215 46.23 Q 33.979 51.335 31.3 55.8 A 50.3 50.3 0 0 1 26.973 61.893 A 59.817 59.817 0 0 1 24.6 64.6 A 20.272 20.272 0 0 1 21 67.647 A 26.047 26.047 0 0 1 18.25 69.25 Q 14.4 71.2 10.9 71.2 A 10.598 10.598 0 0 1 5.528 69.722 A 12.833 12.833 0 0 1 5 69.4 A 10.142 10.142 0 0 1 1.698 65.883 A 13.506 13.506 0 0 1 0.8 64 Q 0.3 62.7 0.15 61.25 Q 0 59.8 0 58.4 A 5.987 5.987 0 0 1 0.015 57.96 Q 0.065 57.281 0.287 57.082 A 0.309 0.309 0 0 1 0.5 57 Q 0.977 57 0.999 57.729 A 2.391 2.391 0 0 1 1 57.8 Q 1 62.5 3.35 64.9 Q 5.7 67.3 9.3 67.3 A 12.429 12.429 0 0 0 15.131 65.823 A 15.186 15.186 0 0 0 16.05 65.3 A 27.025 27.025 0 0 0 20.944 61.414 A 31.408 31.408 0 0 0 22.1 60.2 A 65.789 65.789 0 0 0 28.925 51.346 A 75.976 75.976 0 0 0 30.65 48.55 Q 34.5 42 37.6 35 A 43.884 43.884 0 0 0 38.044 34.022 Q 38.739 32.445 39.789 29.827 A 283.565 283.565 0 0 0 39.9 29.55 Q 41.4 25.8 43.2 21.35 Q 45 16.9 46.7 13.3 Q 48.042 10.259 49.024 8.337 A 44.675 44.675 0 0 1 49.25 7.9 Q 50.3 5.9 52.1 4.5 A 12.684 12.684 0 0 1 53.475 3.581 Q 55.081 2.641 57.5 1.7 A 73.282 73.282 0 0 0 55.578 1.845 A 60.256 60.256 0 0 0 54.5 1.95 Q 53.346 2.074 52.6 2.095 A 10.329 10.329 0 0 1 52.3 2.1 Q 48.5 2.2 44.7 2.6 Q 40.9 3 37.9 4.05 A 12.003 12.003 0 0 0 36.057 4.862 Q 35.108 5.387 34.42 6.042 A 6.006 6.006 0 0 0 33.6 7 A 5.08 5.08 0 0 0 32.706 9.73 A 6.247 6.247 0 0 0 32.7 10 A 6.547 6.547 0 0 0 33.414 12.949 A 7.842 7.842 0 0 0 33.6 13.3 A 6.405 6.405 0 0 0 34.51 14.556 A 4.924 4.924 0 0 0 35.9 15.6 A 1.758 1.758 0 0 1 35.977 15.681 Q 36.085 15.804 36.098 15.88 A 0.117 0.117 0 0 1 36.1 15.9 A 0.236 0.236 0 0 1 36.058 16.027 Q 35.963 16.176 35.65 16.35 A 1.388 1.388 0 0 1 35.154 16.517 Q 34.932 16.546 34.7 16.5 A 7.252 7.252 0 0 1 34.161 16.124 Q 33.614 15.709 32.928 15.066 A 26.885 26.885 0 0 1 32.7 14.85 Q 31.5 13.7 30.55 12.4 A 14.523 14.523 0 0 1 30.021 11.629 Q 29.507 10.82 29.3 10.2 A 7.558 7.558 0 0 1 28.9 7.838 A 7.204 7.204 0 0 1 28.9 7.8 A 5.337 5.337 0 0 1 29.259 5.812 A 4.869 4.869 0 0 1 30.65 3.9 A 10.097 10.097 0 0 1 32.77 2.521 Q 33.763 2.032 34.952 1.673 A 17.312 17.312 0 0 1 35.2 1.6 A 34.17 34.17 0 0 1 39.263 0.713 A 40.736 40.736 0 0 1 41.25 0.45 A 70.42 70.42 0 0 1 46.778 0.067 A 63.528 63.528 0 0 1 47.55 0.05 A 438.95 438.95 0 0 1 49.718 0.02 Q 50.572 0.01 51.342 0.005 A 230.64 230.64 0 0 1 52.8 0 Z" stroke="#a87817" stroke-width="0.1" fill="#e1f03d"/>
</svg>