<svg xmlns="http://www.w3.org/2000/svg" viewBox="-4.97321 24.9667 343 528">
	<path d="M 183.1306 52.997 L 187.0698 53.6916 A 71.536 71.536 10 0 1 185.9275 58.8912 C 185.4056 60.9356 184.7781 63.1239 184.0655 65.4262 A 246.052 246.052 10 0 1 181.6967 72.6465 L 98.0569 302.8195 A 177.345 177.345 10 0 1 91.4403 318.6622 C 80.0659 342.2707 67.9366 349.4983 54.1069 347.0597 A 22.031 22.031 10 0 1 44.9236 343.3791 C 38.9251 339.0447 36.3596 331.5036 37.8998 321.5478 A 42.246 42.246 10 0 1 38.0455 320.6698 C 40.685 305.7007 49.6738 293.882 49.6738 293.882 A 3.666 3.666 10 0 0 49.5301 293.7755 C 48.8003 293.2558 45.2374 290.9451 37.4944 289.3289 A 64.361 64.361 10 0 0 35.5154 288.9485 C 18.1148 285.8803 7 277 0.3737 306.7476 A 40.452 40.452 10 0 0 -1.2079 312.936 A 41.992 41.992 10 0 0 17.4679 356.3394 C 22.9351 360.1395 29.5521 363.3097 37.312 365.6883 A 102.104 102.104 10 0 0 49.4988 368.5866 C 98.3453 377.1995 134.1656 358.3331 154.0158 303.3446 L 233.7412 83.8542 C 244.6044 54.4946 240.9183 40.8471 333 50 L 184.1934 30.845 A 173.593 173.593 10 0 0 146.5544 28.076 C 133.666 28.6436 122.2459 30.9566 112.4565 34.7839 A 59.532 59.532 10 0 0 73.0472 80.7021 A 42.853 42.853 10 0 0 74.1709 101.551 C 78.4896 114.7728 90.0597 124.3189 107.4632 127.3876 A 41.893 41.893 10 0 0 117.5829 127.987 C 130.6248 127.1013 138.7535 119.5044 140.9115 112.2123 A 14.594 14.594 10 0 0 141.2911 110.6069 A 20.436 20.436 10 0 0 141.4067 109.8707 C 141.6692 107.9847 141.5223 106.9921 141.5223 106.9921 A 2.216 2.216 10 0 1 141.4552 107.0097 C 141.0242 107.1216 138.5437 107.6854 134.6172 106.9931 C 127.2312 105.6907 122.7642 100.7906 121.8129 93.7697 A 24.985 24.985 10 0 1 122.0554 86.0942 A 39.733 39.733 10 0 1 146.225 55.8873 C 155.8853 51.7611 168.2521 50.3735 183.1306 52.997 Z M 163.201 411.593 L 47.201 391.593 A 153.203 153.203 270 0 0 40.162 390.561 C 16.372 387.676 5.315 393.374 3.786 415.79 A 85.48 85.48 270 0 0 3.601 421.593 L 3.601 449.193 A 173.593 173.593 270 0 0 7.41 486.741 C 10.207 499.335 14.468 510.18 19.937 519.156 A 59.532 59.532 270 0 0 72.001 549.993 A 42.853 42.853 270 0 0 92.338 545.266 C 104.609 538.717 112.001 525.665 112.001 507.993 A 41.893 41.893 270 0 0 110.834 497.923 C 107.697 485.233 98.804 478.547 91.248 477.688 A 14.594 14.594 270 0 0 89.601 477.593 A 20.436 20.436 270 0 0 88.856 477.607 C 86.953 477.676 86.001 477.993 86.001 477.993 A 2.216 2.216 270 0 1 86.03 478.056 C 86.215 478.461 87.201 480.806 87.201 484.793 C 87.201 492.293 83.151 497.543 76.402 499.699 A 24.985 24.985 270 0 1 68.801 500.793 A 39.733 39.733 270 0 1 34.856 482.236 C 29.115 473.439 25.601 461.501 25.601 446.393 L 25.601 442.793 A 25.382 25.382 270 0 1 25.967 442.797 C 27.657 442.825 35.051 443.043 45.201 444.793 L 158 457 C 173 449 101 449 199 459 A 145.592 145.592 270 0 0 254 452 C 257 453 286 443 335 423 A 93.991 93.991 270 0 0 322 391 C 297 322 260.001 308.793 190.801 281.193 A 660.45 660.45 270 0 0 157.001 268.944 C 122.299 257.396 84.655 247.843 39 205 A 150.772 150.772 270 0 0 29 196 C 26 183 20 217 39 238 A 52.824 52.824 270 0 0 25 270 A 2.89 2.89 270 0 0 25 270 A 336.304 336.304 270 0 1 45 273 A 191.146 191.146 270 0 1 124 292 C 259 352 268.801 361.769 273 397 C 268.801 396.793 258.401 416.793 211.201 416.793 A 172.688 172.688 270 0 1 196.773 416.117 C 191.187 415.644 185.166 414.936 178.772 414.034 A 557.418 557.418 270 0 1 163.201 411.593 Z" stroke="#FF914d" stroke-width="3" fill="#ffde59"/>
</svg>